<svg width="92" height="107" viewBox="0 0 92 107" fill="none" xmlns="http://www.w3.org/2000/svg">
<path d="M47 29L23 41.6667V67L47 79.6667L71 67V41.6667L47 29Z" fill="#F35151" fill-opacity="0.1"/>
<path d="M46.2943 54.9664V66.3664L34.2943 60.6664V48.6331L46.2943 54.9664Z" fill="#F35151"/>
<path d="M47.7057 54.9664V66.3664L59.7057 60.6664V48.6331L47.7057 54.9664Z" fill="#F35151"/>
<path d="M47 53.7L35 47.3667L47 41.6667L59 47.3667L47 53.7Z" fill="#F35151"/>
<path d="M46.2943 32.7999V40.3999L33.5884 46.7332L26.5296 42.9332L46.2943 32.7999Z" fill="#F35151" fill-opacity="0.5"/>
<path d="M46.2943 75.8668V68.2668L33.5884 61.9334L26.5296 65.7334L46.2943 75.8668Z" fill="#F35151" fill-opacity="0.5"/>
<path d="M32.8823 48.0002L25.8235 44.2002V64.4668L32.8823 60.6668V48.0002Z" fill="#F35151" fill-opacity="0.5"/>
<path d="M47.7059 32.7999V40.3999L60.4118 46.7332L67.4706 42.9332L47.7059 32.7999Z" fill="#F35151" fill-opacity="0.5"/>
<path d="M47.7059 75.8668V68.2668L60.4118 61.9334L67.4706 65.7334L47.7059 75.8668Z" fill="#F35151" fill-opacity="0.5"/>
<path d="M61.1174 48.0002L68.1763 44.2002V64.4669L61.1174 60.6669V48.0002Z" fill="#F35151" fill-opacity="0.5"/>
</svg>
